        <svg version="1.0" xmlns="http://www.w3.org/2000/svg" width="36pt" height="34pt" viewBox="0 0 122.000000 119.000000"
            preserveAspectRatio="xMidYMid meet">

            <g transform="translate(0.000000,119.000000) scale(0.100000,-0.100000)" fill="#000" stroke="#000">
                <path
                    d="M320 865 l-265 -265 268 -267 267 -268 67 68 68 67 -200 200 -200 200 200 200 200 200 -65 65 c-35 36 -67 65 -70 65 -3 0 -124 -119 -270 -265z" />
                <path
                    d="M720 735 l-134 -136 134 -134 135 -135 137 137 c76 75 136 137 135 138 -2 0 -63 60 -138 133 l-135 132 -134 -135z" />
            </g>
        </svg>

