<?xml version="1.0" encoding="UTF-8" standalone="no"?>
<!-- Created with Inkscape (http://www.inkscape.org/) -->

<svg
   version="1.1"
   id="svg286"
   width="96"
   height="37.119999"
   viewBox="0 0 96 37.119999"
   sodipodi:docname="logo-dark-300.png.svg"
   inkscape:version="1.1.2 (0a00cf5339, 2022-02-04)"
   xmlns:inkscape="http://www.inkscape.org/namespaces/inkscape"
   xmlns:sodipodi="http://sodipodi.sourceforge.net/DTD/sodipodi-0.dtd"
   xmlns="http://www.w3.org/2000/svg"
   xmlns:svg="http://www.w3.org/2000/svg">
  <defs
     id="defs290" />
  <sodipodi:namedview
     id="namedview288"
     pagecolor="#ffffff"
     bordercolor="#666666"
     borderopacity="1.0"
     inkscape:pageshadow="2"
     inkscape:pageopacity="0.0"
     inkscape:pagecheckerboard="0"
     showgrid="false"
     inkscape:zoom="6.2534756"
     inkscape:cx="65.403629"
     inkscape:cy="16.630752"
     inkscape:window-width="1920"
     inkscape:window-height="1012"
     inkscape:window-x="0"
     inkscape:window-y="0"
     inkscape:window-maximized="1"
     inkscape:current-layer="g292" />
  <g
     inkscape:groupmode="layer"
     inkscape:label="Image"
     id="g292">
    <path
       style="fill:#000000;stroke-width:0.32"
       d="M 9.5992419,27.039241 1.1230124,18.558482 18.237785,1.4437106 22.554036,5.7599624 C 18.291358,10.026642 14.02868,14.293321 9.766001,18.559999 L 22.54773,31.353725 c -1.424985,1.396631 -2.757188,2.899666 -4.30075,4.166274 -2.957394,-2.746788 -5.778451,-5.641875 -8.6477381,-8.480758 z M 62.8,33.708069 c -1.107563,-1.437177 1.108113,-2.246406 0.399986,-0.26807 1.060358,-0.130992 2.547707,0.741068 3.153778,-0.457097 0.662224,-1.496213 -1.888003,-1.354801 -2.85566,-1.365953 -2.380313,-0.909676 1.74641,-1.46674 -0.613606,-2.344565 -0.863665,-1.314353 0.996703,-2.767817 2.139835,-2.195522 3.287971,0.744782 -0.62604,3.405514 -1.523547,3.866729 1.431696,0.297967 4.094911,-0.236446 3.379216,2.00139 -0.360867,1.276035 -3.066405,0.958381 -4.080002,0.763088 z m 2.48,-4.58807 c 1.332513,-1.985636 -2.782722,-2.213306 -1.661178,-0.114311 0.280704,0.852094 1.302731,1.002441 1.661178,0.114311 z m 13.2,2.979415 c 1.168001,-0.325962 0.28843,-2.233176 0.56,-3.251412 0.643541,-1.258013 -2.257532,-2.805812 0.165472,-2.161327 1.28606,1.339617 2.451629,2.828617 3.732035,4.193324 -0.08261,-1.44 -0.165227,-2.88 -0.24784,-4.32 2.266379,-0.303547 0.78901,0.39927 0.51656,1.731931 -0.05541,1.335618 -0.110817,2.671235 -0.166226,4.006853 l -3.52,-4.236777 c 0.04924,1.156092 -0.373809,2.535055 -0.03789,3.555869 2.000751,0.937935 -0.545259,0.771426 -1.002111,0.481539 z m 6.88,0.0087 c 0.91168,-0.579355 0.152007,-2.286591 0.4,-3.313822 0.936614,-1.227339 -1.683332,-2.345648 -0.523766,-2.217119 1.454589,-0.0057 2.909177,-0.01138 4.363766,-0.01707 0.529183,2.077217 -2.309079,-0.591087 -3.058917,0.677738 -0.225022,1.240006 -0.427389,2.456182 1.188958,1.759587 1.594178,0.140366 -0.182263,1.186705 -1.149588,0.39866 -0.168757,0.447582 -0.590058,2.439845 0.286485,2.774649 -0.08808,0.100618 -1.752708,0.215458 -1.506938,-0.06262 z m 5.12,-0.133703 c -0.945354,-0.376594 -0.84199,-2.342874 0.151203,-2.676251 2.314118,-1.209441 -1.759405,1.550261 1.240507,0.775154 1.254453,-0.02487 -0.24605,-1.821228 1.149685,-0.0024 -0.05448,0.723715 -3.175674,-0.443851 -2.369191,1.207161 1.020379,1.0975 2.975895,1.019068 0.458297,0.916774 l -0.6305,-0.220417 z m -52.32,-0.96 c 1.138947,-0.490531 0.310654,-2.111854 0.56,-3.113737 -0.120766,-1.103601 0.48125,-2.565976 -0.876605,-3.055513 -0.2208,-0.242709 2.383628,-0.662524 2.275854,0.682705 0.829623,1.137402 1.736416,5.314429 3.08616,2.961072 0.869906,-1.052421 0.890871,-3.353622 2.107745,-3.848919 1.664505,-0.153594 2.181053,0.05488 0.506893,0.954214 -0.140134,1.635468 -0.01963,3.406597 -0.06005,5.093965 1.986619,0.845745 0.103545,0.659423 -1.05739,0.665698 -2.042855,0.257717 0.799439,-0.746907 0.106141,-1.98389 0.29258,-1.75677 0.149225,-4.834141 -1.026801,-1.49786 -0.710491,1.700213 -1.884341,5.163046 -2.701724,1.803794 -0.626538,-1.305307 -1.253052,-2.610626 -1.879576,-3.91594 -0.06388,1.59531 -0.127759,3.19062 -0.19163,4.78593 1.840685,0.979096 0.315293,0.844457 -0.942818,0.798255 -0.891711,0.03009 -0.305042,-0.0257 0.0938,-0.329774 z m 9.635722,-0.134384 c -0.487356,-1.643366 4.117077,-2.816988 1.29771,-3.65541 -2.209788,2.385722 -0.682299,-1.44339 0.986568,-0.08284 1.456435,0.267458 0.551336,2.054039 0.8,3.098429 0.749517,1.463121 -0.199316,1.0257 -0.780535,0.492331 -0.521559,0.663434 -1.766576,0.933792 -2.303743,0.147493 z m 2.11302,-0.458963 C 51.267783,27.30837 45.968573,31.117693 49.54349,30.85533 Z M 52.4,31.148069 c 0.82815,-0.85042 0.527021,-3.329164 -0.368,-4.26807 1.75122,-0.817782 1.032686,1.732121 2.107452,0.474439 0.617337,-0.556274 -1.532015,2.781935 -0.515144,3.706597 1.266199,0.318352 -1.807381,0.317476 -1.224308,0.08703 z m 2.88,0 c 0.912119,-0.564469 0.148369,-2.259871 0.4,-3.27006 -1.741263,-1.402466 1.253199,-1.147228 0.64,0.582941 -0.510728,2.166429 2.120391,3.577101 -1.04,2.687119 z m 2.853334,-0.0014 c -1.658589,-2.10322 3.720163,-2.053296 1.820391,-3.848707 -0.767293,-0.277318 -2.566064,1.719649 -1.040884,-0.251912 2.242663,-0.851577 2.444016,0.849532 2.207159,2.450872 0.02449,1.318441 0.691342,2.784126 -0.681495,1.064044 1.463058,-3.57831 -3.590827,-0.03243 -0.547017,0.7072 -0.08755,0.0826 -1.37955,0.139189 -1.758154,-0.121497 z m 10.529524,-0.289532 c -1.494664,-1.681298 0.05001,-4.763591 2.356794,-3.565721 1.935392,1.715349 -0.538834,1.61516 -1.773383,1.508583 -1.32598,0.2456 0.344341,3.298771 1.700882,2.092533 2.561972,-0.594903 -1.920266,1.29895 -2.284293,-0.03539 z M 71.04,28.199182 c -1.208948,-2.490096 -4.073704,1.825792 0,0 z m 1.856,2.776817 c 1.192589,-1.486657 -1.276177,-5.524026 1.024,-3.698507 v 3.709174 c 1.796194,0.341571 -2.598321,0.706397 -1.024,-0.01067 z m -6.189158,-3.47729 c -0.07487,-1.859278 1.693488,1.258038 0,0 z m 8.64,0 c -0.07487,-1.859278 1.693488,1.258038 0,0 z M 22.398658,22.878654 18.085904,18.557005 26.72,9.9307025 35.387373,18.540946 c -2.891986,2.886453 -5.783973,5.772905 -8.675961,8.659357 z"
       id="path1623"
       sodipodi:nodetypes="ccccccccccccccccccccccccccccccscccccccsssccccccsccccccccccccccccsccccsscccscccsscccccccccccscccssccsccsscccccccccc" />
    <text
       xml:space="preserve"
       style="font-style:normal;font-variant:normal;font-weight:normal;font-stretch:normal;font-size:17.7735px;line-height:1.25;font-family:P052;-inkscape-font-specification:'P052, Normal';font-variant-ligatures:normal;font-variant-caps:normal;font-variant-numeric:normal;font-variant-east-asian:normal;letter-spacing:0px;word-spacing:0px;fill:#000000;fill-opacity:1;stroke:none;stroke-width:0.444338"
       x="36.632927"
       y="21.485291"
       id="text4519"
       transform="scale(1.0026268,0.99738008)"><tspan
         sodipodi:role="line"
         id="tspan4517"
         x="36.632927"
         y="21.485291"
         style="font-style:normal;font-variant:normal;font-weight:normal;font-stretch:normal;font-size:17.7735px;font-family:P052;-inkscape-font-specification:'P052, Normal';font-variant-ligatures:normal;font-variant-caps:normal;font-variant-numeric:normal;font-variant-east-asian:normal;stroke-width:0.444338">Liberty</tspan></text>
  </g>
</svg>
